<?xml version="1.0" encoding="UTF-8" standalone="no"?>
<svg
   xmlns:dc="http://purl.org/dc/elements/1.1/"
   xmlns:cc="http://creativecommons.org/ns#"
   xmlns:rdf="http://www.w3.org/1999/02/22-rdf-syntax-ns#"
   xmlns:svg="http://www.w3.org/2000/svg"
   xmlns="http://www.w3.org/2000/svg"
   xmlns:sodipodi="http://sodipodi.sourceforge.net/DTD/sodipodi-0.dtd"
   xmlns:inkscape="http://www.inkscape.org/namespaces/inkscape"
   version="1.1"
   id="svg885"
   width="195.84"
   height="195.84"
   viewBox="0 0 195.84 195.84"
   sodipodi:docname="Anchor.svg"
   inkscape:version="1.0.1 (3bc2e813f5, 2020-09-07)"
   inkscape:export-filename="/home/bence/Documents/SailGame/Art/Anchor.png"
   inkscape:export-xdpi="172.66331"
   inkscape:export-ydpi="172.66331">
  <metadata
     id="metadata891">
    <rdf:RDF>
      <cc:Work
         rdf:about="">
        <dc:format>image/svg+xml</dc:format>
        <dc:type
           rdf:resource="http://purl.org/dc/dcmitype/StillImage" />
        <dc:title />
      </cc:Work>
    </rdf:RDF>
  </metadata>
  <defs
     id="defs889" />
  <sodipodi:namedview
     pagecolor="#ffffff"
     bordercolor="#666666"
     borderopacity="1"
     objecttolerance="10"
     gridtolerance="10"
     guidetolerance="10"
     inkscape:pageopacity="0"
     inkscape:pageshadow="2"
     inkscape:window-width="1920"
     inkscape:window-height="1016"
     id="namedview887"
     showgrid="false"
     inkscape:zoom="4.2126226"
     inkscape:cx="97.919998"
     inkscape:cy="97.919998"
     inkscape:window-x="1920"
     inkscape:window-y="27"
     inkscape:window-maximized="1"
     inkscape:current-layer="g893"
     inkscape:document-rotation="0" />
  <g
     inkscape:groupmode="layer"
     inkscape:label="Image"
     id="g893">
    <path
       style="fill:#4d4d4d;stroke-width:3.26929134;stroke:#000000;stroke-miterlimit:4;stroke-dasharray:none"
       d="m 94.688729,158.82349 c -6.02354,-5.82001 -7.48557,-6.73829 -13.57038,-8.52339 -15.13543,-4.44026 -26.55185,-14.33763 -30.92332,-26.80869 -0.47812,-1.364 -0.9321,-2.48 -1.00885,-2.48 -0.48119,0 -1.76081,0.93029 -3.19207,2.32065 -1.98857,1.93174 -2.6636,1.89365 -2.66906,-0.15061 -0.005,-1.67881 1.8819,-25.406748 2.09961,-26.410038 0.38296,-1.76475 0.54808,-1.57443 12.14501,13.998838 3.07947,4.13536 5.59904,7.75936 5.59904,8.05334 0,0.76584 -0.48362,0.83249 -2.68777,0.37042 -2.29719,-0.48158 -4.67223,-0.54608 -4.67223,-0.12691 0,0.56017 5.92458,6.33644 8.32,8.11175 6.04507,4.48014 14.28575,8.23667 18.05285,8.22943 1.84299,-0.004 4.41386,-1.06251 5.53152,-2.27851 0.3874,-0.42148 1.01318,-1.46444 1.3906,-2.31768 0.65874,-1.48919 0.71045,-2.44429 1.29039,-23.83601 0.33229,-12.256568 0.72353,-26.532669 0.86942,-31.724669 0.30551,-10.87266 0.1713,-11.99207 -1.63638,-13.64869 -1.50956,-1.38341 -2.90343,-1.70742 -7.35429,-1.70952 -4.81031,-0.002 -5.98323,0.55705 -6.37119,3.03821 -0.091,0.58175 -0.43465,0.66001 -3.77649,0.85991 -6.30567,0.37718 -7.03514,-0.41805 -7.03593,-7.67019 -6.4e-4,-7.33243 0.43524,-7.84797 6.78485,-8.02185 l 4.09465,-0.11214 v 0.8113 c 0,1.36824 0.56523,2.39787 1.61411,2.94027 0.82068,0.42438 1.85372,0.49941 5.71863,0.41532 4.55614,-0.0991 4.76342,-0.13336 6.07726,-1.00379 1.63753,-1.08486 2.57304,-2.94049 2.58297,-5.12344 0.008,-1.66791 -0.12476,-1.84799 -3.25196,-4.42471 -0.80608,-0.66417 -1.89473,-2.04656 -2.52007,-3.2 -1.46664,-3.56959 -1.80579,-7.28251 -0.21704,-10.55053 1.07544,-2.18991 3.51668,-4.54319 5.76632,-5.55857 6.329973,-2.85704 13.702061,0.65241 15.930781,7.58374 0.81242,2.52662 0.71556,4.55733 -0.35369,7.41514 -0.72395,1.93494 -2.62776,4.28152 -4.32433,5.33006 -3.005061,1.85724 -2.60918,6.34522 0.76378,8.65834 1.04696,0.71799 1.457,0.77765 5.94886,0.86566 4.3769,0.0858 4.92005,0.0347 5.85579,-0.55007 0.61494,-0.38431 1.10719,-1.00394 1.21906,-1.53452 0.38092,-1.80654 0.45889,-1.84354 4.08835,-1.9406 3.96238,-0.10596 5.30519,0.30115 6.30458,1.91141 0.60565,0.97584 0.6503,1.47979 0.56701,6.39913 l -0.0904,5.33987 -0.93605,0.97614 c -1.16746,1.21747 -2.05231,1.36798 -6.26395,1.06546 -3.23452,-0.23233 -3.3641,-0.27034 -3.46966,-1.01787 -0.33791,-2.39272 -1.89349,-3.00397 -7.25637,-2.85133 -4.61143,0.13126 -5.84359,0.60669 -7.26911,2.8048 l -0.94883,1.46306 0.20237,9.12 c 0.78198,35.242029 1.49693,56.105139 1.96067,57.215029 0.80799,1.93378 2.06726,3.29717 3.78347,4.09628 2.26562,1.05493 4.28692,1.00148 7.70131,-0.20365 5.72165,-2.01949 9.82328,-4.24655 14.43246,-7.83639 2.53739,-1.97623 7.50368,-6.96512 7.50368,-7.53782 0,-0.42131 -2.39033,-0.3417 -4.71466,0.15701 -1.71832,0.36869 -2.04815,0.36353 -2.38075,-0.0372 -0.49523,-0.59672 -1.12399,0.33539 8.35449,-12.38516 4.50976,-6.0523 8.22548,-10.748078 8.50487,-10.748078 0.27287,0 0.5592,0.18 0.63628,0.4 0.27093,0.77327 2.36282,27.483938 2.18811,27.939238 -0.28631,0.74611 -0.67847,0.56288 -3.1231,-1.45924 -1.27664,-1.056 -2.46914,-1.92 -2.65001,-1.92 -0.18087,0 -0.65112,0.972 -1.04499,2.16 -2.48907,7.50756 -8.67291,15.29768 -16.07211,20.24693 -4.88305,3.26622 -9.23423,5.24967 -15.46394,7.04912 -5.4523,1.5749 -6.51587,2.2171 -11.500031,6.94395 -1.716623,1.628 -3.214063,2.95955 -3.327638,2.95901 -0.113577,-6.6e-4 -0.926502,-0.69669 -1.806502,-1.54695 z m 5.2258,-120.932279 c 1.738951,-1.40747 2.369561,-2.44653 2.535991,-4.17866 0.37117,-3.86278 -2.18329,-6.79119 -5.909042,-6.77411 -5.319689,0.0244 -8.056389,5.90471 -4.638509,9.96663 1.986842,2.36121 5.74159,2.82338 8.01156,0.98614 z"
       id="path897"
       sodipodi:nodetypes="sssssssssssscssssscsscscssssssccssssssssssscsscsscsssssssssssssssssscssssss" />
  </g>
</svg>
