<?xml version="1.0" encoding="UTF-8" standalone="no"?>
<svg
   xmlns:dc="http://purl.org/dc/elements/1.1/"
   xmlns:cc="http://creativecommons.org/ns#"
   xmlns:rdf="http://www.w3.org/1999/02/22-rdf-syntax-ns#"
   xmlns:svg="http://www.w3.org/2000/svg"
   xmlns="http://www.w3.org/2000/svg"
   xmlns:sodipodi="http://sodipodi.sourceforge.net/DTD/sodipodi-0.dtd"
   xmlns:inkscape="http://www.inkscape.org/namespaces/inkscape"
   width="210mm"
   height="297mm"
   viewBox="0 0 210 297"
   version="1.1"
   id="svg2212"
   inkscape:version="1.0.1 (3bc2e813f5, 2020-09-07)"
   sodipodi:docname="lantern.svg"
   inkscape:export-filename="/home/bence/Documents/SailGame/Art/Lantern.png"
   inkscape:export-xdpi="25.039568"
   inkscape:export-ydpi="25.039568">
  <defs
     id="defs2206" />
  <sodipodi:namedview
     id="base"
     pagecolor="#ffffff"
     bordercolor="#666666"
     borderopacity="1.0"
     inkscape:pageopacity="0.0"
     inkscape:pageshadow="2"
     inkscape:zoom="0.29718342"
     inkscape:cx="-374.28515"
     inkscape:cy="693.11387"
     inkscape:document-units="mm"
     inkscape:current-layer="layer1"
     inkscape:document-rotation="0"
     showgrid="false"
     inkscape:snap-bbox="true"
     inkscape:object-paths="true"
     inkscape:snap-smooth-nodes="true"
     inkscape:window-width="1920"
     inkscape:window-height="1016"
     inkscape:window-x="1920"
     inkscape:window-y="27"
     inkscape:window-maximized="1"
     inkscape:snap-global="true" />
  <metadata
     id="metadata2209">
    <rdf:RDF>
      <cc:Work
         rdf:about="">
        <dc:format>image/svg+xml</dc:format>
        <dc:type
           rdf:resource="http://purl.org/dc/dcmitype/StillImage" />
        <dc:title></dc:title>
      </cc:Work>
    </rdf:RDF>
  </metadata>
  <g
     inkscape:label="Layer 1"
     inkscape:groupmode="layer"
     id="layer1"
     style="opacity:1">
    <path
       id="path892"
       style="opacity:1;fill:#000000;fill-opacity:1;stroke:#000000;stroke-width:3.26929;stroke-linecap:round;stroke-linejoin:round"
       d="m 409.27539,22.902344 c -2.00933,-0.0066 -4.01884,0.0018 -6.02539,0.02539 -36.67927,0.508897 -74.17537,7.887035 -105.87891,27.046875 -34.42655,20.604227 -58.71249,55.788751 -69.41797,94.119141 -12.52343,42.77149 -12.19807,88.12061 -7.21484,132.05078 4.13765,35.59404 12.13259,70.65143 22.29492,104.98242 -2.51498,7.5117 -6.27396,14.52412 -10.67187,21.07813 -5.72068,10.53653 -5.31634,22.96881 -3.98438,34.51758 7.21668,117.84684 14.52328,235.69003 21.6836,353.53906 0.0693,4.62799 -2.41554,8.77023 -3.39453,13.2207 -2.33915,7.90919 -5.43882,15.57765 -9.33985,22.83789 -5.75461,13.22155 -5.61152,27.93585 -5.10351,42.06641 0.18678,15.40018 -0.95983,30.95976 1.55664,46.2207 5.03121,21.39383 20.64019,38.76528 38.5957,50.64649 29.62299,20.04759 65.0668,29.462 100.2207,33.71484 48.57356,5.57215 98.90502,0.56919 144.3086,-18.11914 22.84395,-9.76619 44.74928,-24.13772 58.53711,-45.25391 7.95594,-12.70397 11.45018,-27.96262 10.29882,-42.87304 -0.20787,-17.72115 0.84651,-35.52752 -1.02148,-53.17969 -1.67229,-9.54078 -6.81462,-17.90983 -10.30664,-26.79883 -2.39127,-7.23806 -5.17563,-14.47282 -6.42578,-21.99219 0.25927,-9.42644 1.19894,-18.95934 1.61133,-28.40234 7.00051,-114.31204 14.12337,-228.61716 20.8125,-342.94727 -0.25059,-10.61382 -6.42089,-19.66509 -11.51758,-28.52343 -1.06889,-3.25437 -3.24579,-6.37219 -3.57227,-9.74024 19.77052,-55.74507 33.37634,-114.44089 32.61133,-173.87109 -0.81759,-36.13083 -7.96487,-73.03255 -26.76367,-104.33399 C 562.60686,71.892077 532.41788,48.399957 498.2793,36.777344 469.79695,26.596392 439.41541,23.001272 409.27539,22.902344 Z m 1.0332,13.933594 c 71.28212,0.314536 118.16765,22.091621 146.38477,55.75 29.12738,34.742732 37.89726,80.639802 37.31445,125.572262 -0.88112,67.93133 -23.09336,135.14758 -33.89453,163.94532 l 7.66406,18.6289 a 167.50901,66.538821 0 0 1 5.1211,7.47656 167.50901,66.538821 0 0 1 0.21289,0.40821 167.50901,66.538821 0 0 1 0.48047,0.97265 167.50901,66.538821 0 0 1 0.22656,0.48633 167.50901,66.538821 0 0 1 0.42578,0.97656 167.50901,66.538821 0 0 1 0.57031,1.47071 167.50901,66.538821 0 0 1 0.48633,1.47265 167.50901,66.538821 0 0 0 0,0.002 167.50901,66.538821 0 0 1 0.4043,1.47656 167.50901,66.538821 0 0 1 0.4082,1.97656 167.50901,66.538821 0 0 1 0.14844,0.99024 167.50901,66.538821 0 0 1 0.22851,3.46679 167.50901,66.538821 0 0 1 -0.19726,3.22657 l -22.64258,368.875 9.16211,28.73437 a 162.79418,85.919138 0 0 1 8.96289,28.11328 v 50.31446 a 162.79418,85.919138 0 0 1 0,0.0742 162.79418,85.919138 0 0 1 -162.79492,85.91993 162.79418,85.919138 0 0 1 -162.79492,-85.91993 v -50.38867 a 162.79418,85.919138 0 0 1 8.96484,-28.11719 L 264.3125,794.0098 241.66992,425.12308 a 167.50901,66.538821 0 0 1 -0.19726,-3.21485 167.50901,66.538821 0 0 1 0.002,-0.28906 167.50901,66.538821 0 0 1 0.004,-0.24023 167.50901,66.538821 0 0 1 0.008,-0.31446 167.50901,66.538821 0 0 1 0.0137,-0.36133 167.50901,66.538821 0 0 1 0.002,-0.0391 167.50901,66.538821 0 0 1 0.0234,-0.41211 167.50901,66.538821 0 0 1 0.008,-0.125 167.50901,66.538821 0 0 1 0.0234,-0.32031 167.50901,66.538821 0 0 1 0.0176,-0.20117 167.50901,66.538821 0 0 1 0.0215,-0.24024 167.50901,66.538821 0 0 1 0.0371,-0.35351 167.50901,66.538821 0 0 1 0.0566,-0.47461 167.50901,66.538821 0 0 1 0.0137,-0.0996 167.50901,66.538821 0 0 1 0.0449,-0.33008 167.50901,66.538821 0 0 1 0.0586,-0.38867 167.50901,66.538821 0 0 1 0.002,-0.0195 167.50901,66.538821 0 0 1 0.0605,-0.35547 167.50901,66.538821 0 0 1 0.0469,-0.26953 167.50901,66.538821 0 0 1 0.0332,-0.17383 167.50901,66.538821 0 0 1 0.0488,-0.24805 167.50901,66.538821 0 0 1 0.0586,-0.28906 167.50901,66.538821 0 0 1 0.0508,-0.23828 167.50901,66.538821 0 0 1 0.043,-0.19336 167.50901,66.538821 0 0 1 0.0879,-0.37109 167.50901,66.538821 0 0 1 0.008,-0.0371 167.50901,66.538821 0 0 1 0.0957,-0.38086 167.50901,66.538821 0 0 1 0.0586,-0.22656 167.50901,66.538821 0 0 1 0.0801,-0.29297 167.50901,66.538821 0 0 1 0.041,-0.14649 167.50901,66.538821 0 0 1 0.11133,-0.38086 167.50901,66.538821 0 0 1 0.0176,-0.0586 167.50901,66.538821 0 0 1 0.14063,-0.45703 167.50901,66.538821 0 0 1 0.13671,-0.42188 167.50901,66.538821 0 0 1 0.0645,-0.1875 167.50901,66.538821 0 0 1 0.11328,-0.32812 167.50901,66.538821 0 0 1 0.0391,-0.11133 167.50901,66.538821 0 0 1 0.15235,-0.41406 167.50901,66.538821 0 0 1 0.01,-0.0274 167.50901,66.538821 0 0 1 0.18359,-0.47461 167.50901,66.538821 0 0 1 0.17188,-0.42773 167.50901,66.538821 0 0 1 0.0703,-0.16992 167.50901,66.538821 0 0 1 0.14649,-0.3418 167.50901,66.538821 0 0 1 0.0664,-0.15625 167.50901,66.538821 0 0 1 0.11524,-0.25976 167.50901,66.538821 0 0 1 0.11133,-0.2461 167.50901,66.538821 0 0 1 0.1621,-0.34961 167.50901,66.538821 0 0 1 0,-0.004 167.50901,66.538821 0 0 1 0.23438,-0.48633 167.50901,66.538821 0 0 1 0.24414,-0.48438 167.50901,66.538821 0 0 1 0.23633,-0.45703 167.50901,66.538821 0 0 1 0.0156,-0.0293 167.50901,66.538821 0 0 1 5.1211,-7.47656 l 7.76172,-18.86718 c -8.92736,-28.22533 -27.06726,-93.97519 -26.5,-160.8379 0.37561,-44.27535 8.89605,-89.52851 35.10742,-124.576168 26.21136,-35.047657 70.22651,-58.58572 136.77929,-59.572265 2.35042,-0.03477 4.67522,-0.04731 6.97461,-0.03711 z m -0.0801,18.896484 c -2.17641,-0.0081 -4.37992,0.0038 -6.61329,0.03711 -62.34223,0.924129 -99.25499,21.676076 -121.92773,51.992188 -22.6727,30.31611 -30.9881,71.50088 -31.34375,113.42187 -0.42396,49.97182 10.36177,100.11317 19.1582,132.58789 l 31.35352,-76.21289 v -91.82812 -23.02735 a 108.12555,42.604278 0 0 1 0,-0.13476 108.12555,42.604278 0 0 1 107.78711,-42.60352 108.12555,42.604278 0 0 1 0.33789,0 108.12555,42.604278 0 0 1 108.125,42.60352 108.125,42.603519 0 0 0 0.002,-0.13281 l -0.002,23.16211 a 108.125,42.603519 0 0 1 0,0.13281 108.125,42.603519 0 0 1 0,0.13281 v 68.73047 a 108.125,42.603519 0 0 0 0.002,-0.19727 l -0.002,23.0293 a 108.12555,42.604278 0 0 1 0,0.13281 l 32.16406,78.1836 c 10.89581,-32.98534 25.17294,-85.81024 25.84766,-137.82813 0.54844,-42.28514 -7.87847,-83.33239 -32.90821,-113.1875 C 517.9615,75.804442 477.69724,55.980057 410.22852,55.732422 Z m -0.1504,14.003906 c 23.50421,0.263925 47.08657,2.478522 69.58008,10.039063 25.37012,8.296131 48.68423,24.902349 61.92188,48.433589 13.16893,22.73237 18.35698,49.71148 19.2793,75.75782 1.10932,32.477 -3.37672,64.71139 -10.5918,96.1875 -1.07943,4.41829 -2.08679,8.8556 -3.25391,13.25195 -5.30022,-12.87894 -10.60216,-25.75778 -15.90234,-38.63672 -0.0673,-38.8232 0.23735,-77.65473 -0.36133,-116.47265 -2.33526,-14.74859 -14.12988,-25.94975 -26.87891,-32.54493 -27.11266,-14.46003 -58.27689,-18.6509 -88.60351,-19.60156 -33.15935,-0.7518 -67.09032,3.57475 -97.45117,17.5332 -12.49883,6.24598 -24.82092,15.62356 -29.3418,29.38477 -3.19429,11.46802 -0.96034,23.45137 -1.62109,35.15625 v 86.54492 l -13.6211,33.09961 c -7.13925,-36.83488 -10.92551,-74.40986 -7.51562,-111.86328 2.11902,-21.51153 6.84637,-42.74314 16.52148,-62.3418 11.4806,-23.58052 31.81837,-42.829956 56.36328,-52.265622 20.32464,-8.194428 42.30219,-11.074362 63.87305,-11.574219 2.53413,-0.06917 5.06866,-0.07153 7.60351,-0.08789 z"
       transform="scale(0.26458333)"
       inkscape:export-xdpi="25.039568"
       inkscape:export-ydpi="25.039568" />
    <path
       id="path2789"
       style="opacity:1;fill:#d47d00;fill-opacity:1;stroke:none;stroke-width:3.26929;stroke-linecap:round;stroke-linejoin:round"
       d="M 408.00781,737.16016 A 144.66872,56.848222 0 0 0 264.3125,794.00781 l -9.16211,28.73047 a 162.79418,85.919142 0 0 0 -8.96484,28.11719 v 50.38867 a 162.79418,85.919142 0 0 0 162.79492,85.91992 162.79418,85.919142 0 0 0 162.79492,-85.91992 162.79418,85.919142 0 0 0 0,-0.0742 v -50.31445 a 162.79418,85.919142 0 0 0 -8.96289,-28.11328 l -9.16211,-28.73438 a 144.66872,56.848222 0 0 0 -144.66992,-56.84765 144.66872,56.848222 0 0 0 -0.97266,0 z"
       transform="scale(0.26458333)"
       inkscape:export-xdpi="25.039568"
       inkscape:export-ydpi="25.039568" />
    <g
       id="g3787"
       transform="matrix(0.44400446,0,0,0.44400446,9.0580789,78.337534)"
       style="stroke-width:2.25223"
       inkscape:export-xdpi="25.039568"
       inkscape:export-ydpi="25.039568">
      <path
         style="fill:#eb5205;stroke-width:2.25223"
         d="m 208.46555,199.74396 c 0,-0.08 0.17456,-0.48299 0.38791,-0.89557 0.62268,-1.20413 2.23499,-6.05239 2.7774,-8.35171 1.04036,-4.41023 1.19401,-5.8138 1.173,-10.71562 -0.018,-4.20413 -0.1169,-5.34279 -0.70076,-8.06979 -2.0533,-9.59018 -6.93524,-18.58626 -14.54601,-26.80431 -0.58053,-0.62685 -0.98579,-1.20943 -0.90059,-1.29464 0.0852,-0.0852 0.76891,0.10025 1.51935,0.41212 0.75044,0.31187 1.47547,0.56704 1.61118,0.56704 0.42228,0 5.01994,2.36693 6.82643,3.51434 5.60912,3.56265 9.84556,8.31594 12.53412,14.06329 1.9429,4.15335 2.63692,7.49871 2.63826,12.71716 0.001,3.71472 -0.0838,4.5599 -0.6921,6.89904 -1.46514,5.63429 -3.71709,9.82223 -7.40816,13.77691 -2.49316,2.67121 -5.22003,4.8557 -5.22003,4.18174 z"
         id="path3707" />
      <path
         style="fill:#eb5205;stroke-width:2.25223"
         d="m 230.72165,300.10034 c -1.80844,-4.88506 -2.2355,-7.1726 -2.25983,-12.10469 -0.0255,-5.16234 0.34517,-7.32856 2.01451,-11.77395 2.036,-5.4218 4.8086,-9.67976 10.01307,-15.3773 5.41427,-5.92723 8.07341,-9.51586 10.56356,-14.25604 0.76447,-1.45521 1.43065,-2.68933 1.4804,-2.7425 0.0498,-0.0532 0.39227,0.24448 0.76115,0.66145 1.09635,1.23932 2.97712,5.33253 3.75236,8.16647 0.65143,2.38134 0.72551,3.09548 0.74108,7.14375 0.023,5.9868 -0.58316,8.75079 -3.02562,13.79591 -1.80224,3.72269 -3.80072,6.23886 -8.36957,10.53764 -9.39863,8.84307 -12.45409,12.10617 -14.15055,15.11212 -0.88637,1.57056 -1.18765,1.73643 -1.52056,0.83714 z"
         id="path3705" />
      <path
         style="fill:#eb5205;stroke-width:2.25223"
         d="m 228.83846,306.25884 c -0.3638,-0.11872 -1.83197,-0.53586 -3.26259,-0.92697 -3.86129,-1.05561 -7.83228,-2.59323 -11.62029,-4.49951 -13.12752,-6.60633 -21.6831,-16.98587 -25.20543,-30.57898 -1.55899,-6.01635 -1.96756,-15.3167 -0.9076,-20.65986 1.5751,-7.93999 4.66528,-15.126 9.97528,-23.19686 3.89459,-5.91954 7.26723,-9.89151 14.75381,-17.3756 8.1374,-8.13469 11.39033,-14.05484 13.66765,-24.87437 0.20547,-0.97621 0.33598,-3.67608 0.33893,-7.01147 0.004,-4.6083 -0.0851,-5.86162 -0.59281,-8.33437 -0.70331,-3.42521 -1.88911,-7.17813 -3.1141,-9.85573 -0.55726,-1.21808 -0.75884,-1.91823 -0.55227,-1.91823 0.78988,0 9.81508,6.451 13.66317,9.76612 15.99829,13.78245 23.63936,29.14437 22.45028,45.13493 -0.67714,9.10615 -3.24958,17.7166 -7.94417,26.59062 -3.22805,6.1019 -6.3725,10.68738 -12.26421,17.88465 -2.13285,2.60548 -4.3256,5.39208 -4.87278,6.19244 -3.8731,5.66524 -6.27928,11.10029 -7.47289,16.87967 -1.08484,5.25273 -0.6504,13.22095 0.97663,17.91304 1.08419,3.12661 1.55955,4.30827 2.58072,6.41526 0.61736,1.2738 1.16215,2.40529 1.21066,2.51443 0.11328,0.25489 -0.95249,0.21999 -1.80799,-0.0592 z"
         id="path3697" />
      <path
         id="path3703"
         style="fill:#ffd42a;stroke-width:2.25223"
         d="m 232.91094,171.96051 c 0,0 1.02753,6.02874 0.82032,10.49736 -0.58565,4.09768 -1.35805,8.07442 -2.77734,11.97461 -1.99232,5.31093 -4.86305,10.42498 -8.50968,14.83375 -4.56243,5.44236 -10.16065,9.93017 -14.45154,15.62012 -4.78585,6.35424 -9.21685,13.15347 -11.692,20.77155 -1.40624,4.29645 -2.12217,8.83278 -1.86606,13.35713 0.2405,8.58188 2.81777,17.26034 8.11781,24.09695 2.27972,2.74318 4.79577,5.30614 7.53934,7.58126 3.70838,3.06497 7.84394,5.16476 12.06939,7.70515 0,0 -3.08739,-6.50387 -3.36991,-8.93723 -0.28251,-2.43335 -0.31255,-2.94369 -0.38671,-4.0732 -0.0125,-5.90885 1.39948,-11.76128 3.81803,-17.10239 1.83374,-4.00536 3.97549,-7.91738 6.44973,-11.59061 1.94818,-2.71124 4.30065,-5.10127 6.3174,-7.76089 2.73517,-3.53177 5.35251,-7.17242 7.59788,-11.03768 1.97831,-3.61043 3.7621,-7.33695 5.22864,-11.18626 1.92085,-5.04539 3.10696,-10.40377 3.09049,-15.81867 0.005,-3.67309 0.15844,-7.42164 -0.8475,-10.99341 -1.49556,-5.40364 -4.13251,-10.44857 -7.33393,-15.0309 -4.25022,-7.78763 -9.81436,-12.90664 -9.81436,-12.90664 z"
         sodipodi:nodetypes="cccccccccczcccccccccc" />
      <path
         id="path3709"
         style="fill:#ffd42a;stroke-width:2.25223"
         d="m 252.02032,254.22937 c -3.61787,5.28701 -8.22837,9.77877 -12.17381,14.80565 -2.935,3.97689 -5.24919,8.40599 -6.20411,13.29943 -0.50471,2.61027 -0.49508,5.33111 -0.33107,7.93788 4.51987,-4.82556 9.65138,-9.04614 14.05665,-13.98046 2.35029,-2.83425 4.1677,-6.26479 5.03208,-9.84704 0.81171,-3.23704 0.69057,-6.53821 0.49351,-9.87114 -0.0986,-0.97498 -0.25436,-1.94532 -0.50606,-2.89315 -0.12239,0.18294 -0.24479,0.36588 -0.36719,0.54883 z" />
      <path
         id="path3720"
         style="fill:#ffd42a;fill-opacity:1;stroke-width:2.25223"
         d="m 206.32305,151.73522 c 4.53638,6.86002 7.91903,14.64125 8.89725,22.85337 0.38365,4.24602 0.34986,8.5477 -0.23541,12.77266 -0.17116,1.06981 -0.39069,2.13125 -0.64426,3.18451 2.31726,-3.33056 3.85295,-7.26894 4.55469,-11.14648 0.42242,-2.78764 0.26801,-5.62677 0.0457,-8.42505 -0.46962,-5.02639 -2.82124,-9.71124 -5.9088,-13.63581 -2.05507,-2.59156 -4.65203,-4.95594 -7.50413,-6.76727 0.26497,0.38803 0.52995,0.77605 0.79492,1.16407 z" />
    </g>
    <path
       id="ellipse2793"
       style="opacity:1;fill:#d47d00;fill-opacity:1;stroke:none;stroke-width:3.26929;stroke-linecap:round;stroke-linejoin:round"
       d="m 408.64258,119.96484 a 108.12555,42.604281 0 0 0 -107.78711,42.60352 108.12555,42.604281 0 0 0 0,0.13476 v 114.85547 l -50.66992,123.16797 a 167.50901,66.538825 0 0 0 -8.71289,21.17969 167.50901,66.538825 0 0 0 167.50781,66.53906 167.50901,66.538825 0 0 0 167.50976,-66.53906 167.50901,66.538825 0 0 0 -8.71289,-21.17578 L 517.10547,277.55859 a 108.12555,42.604281 0 0 0 0,-0.13281 V 162.56836 a 108.12555,42.604281 0 0 0 -108.125,-42.60352 108.12555,42.604281 0 0 0 -0.33789,0 z"
       transform="scale(0.26458333)"
       inkscape:export-xdpi="25.039568"
       inkscape:export-ydpi="25.039568" />
    <path
       id="ellipse2791"
       style="opacity:0.424871;fill:#cccccc;stroke:none;stroke-width:3.26929;stroke-linecap:round;stroke-linejoin:round"
       d="m 241.66992,425.11523 22.64258,368.89258 a 144.66909,66.538824 0 0 0 144.66797,66.53907 144.66909,66.538824 0 0 0 144.66992,-66.53907 l 22.64258,-368.875 a 167.50901,66.538824 0 0 1 -167.3125,63.3125 167.50901,66.538824 0 0 1 -167.31055,-63.33008 z"
       transform="scale(0.26458333)"
       inkscape:export-xdpi="25.039568"
       inkscape:export-ydpi="25.039568" />
    <path
       id="path3825"
       style="opacity:1;fill:#784421;fill-opacity:1;stroke:none;stroke-width:0.865;stroke-linecap:round;stroke-linejoin:round"
       d="m 117.5861,56.659589 a 28.608073,11.272182 0 0 1 0.22893,0.03152 28.608073,11.272182 0 0 0 -0.22893,-0.03152 z m 18.98334,9.168947 a 28.608073,11.272182 0 0 1 0.0181,0.05581 28.608073,11.272182 0 0 0 -0.0181,-0.05581 z m -56.868363,0.540536 a 28.608073,11.272182 0 0 0 -0.03927,0.208256 28.608073,11.272182 0 0 1 0.03927,-0.208256 z m -0.08061,0.529685 a 28.608073,11.272182 0 0 0 -0.01395,0.20102 28.608073,11.272182 0 0 1 0.01395,-0.20102 z m -0.01395,0.20102 a 28.608073,11.272182 0 0 0 -0.0052,0.209291 28.608073,11.272182 0 0 1 0.0052,-0.209291 z m 57.199093,-0.119372 a 28.608073,11.272182 0 0 1 0.003,0.04651 28.608073,11.272182 0 0 0 -0.003,-0.04651 z m 0.0103,0.20774 a 28.608073,11.272182 0 0 1 0.001,0.04961 28.608073,11.272182 0 0 0 -0.001,-0.04961 z m 0.002,0.120923 A 28.608073,11.272182 0 0 1 108.20941,78.581246 28.608073,11.272182 0 0 1 79.601342,67.344207 v 6.128308 a 28.608073,11.272182 0 0 0 28.608068,11.272182 28.608073,11.272182 0 0 0 28.60808,-11.272182 28.608073,11.272182 0 0 0 0,-0.03514 z"
       inkscape:export-xdpi="25.039568"
       inkscape:export-ydpi="25.039568" />
    <path
       id="path3839"
       style="opacity:1;fill:#784421;fill-opacity:1;stroke:none;stroke-width:0.865;stroke-linecap:round;stroke-linejoin:round"
       d="m 117.5861,32.32826 a 28.608073,11.272182 0 0 1 0.22893,0.03152 28.608073,11.272182 0 0 0 -0.22893,-0.03152 z m 18.98334,9.168947 a 28.608073,11.272182 0 0 1 0.0181,0.05581 28.608073,11.272182 0 0 0 -0.0181,-0.05581 z m -56.868363,0.540536 a 28.608073,11.272182 0 0 0 -0.03927,0.208256 28.608073,11.272182 0 0 1 0.03927,-0.208256 z m -0.08061,0.529685 a 28.608073,11.272182 0 0 0 -0.01395,0.20102 28.608073,11.272182 0 0 1 0.01395,-0.20102 z m -0.01395,0.20102 a 28.608073,11.272182 0 0 0 -0.0052,0.209291 28.608073,11.272182 0 0 1 0.0052,-0.209291 z m 57.199093,-0.119372 a 28.608073,11.272182 0 0 1 0.003,0.04651 28.608073,11.272182 0 0 0 -0.003,-0.04651 z m 0.0103,0.20774 a 28.608073,11.272182 0 0 1 0.001,0.04961 28.608073,11.272182 0 0 0 -0.001,-0.04961 z m 0.002,0.120923 A 28.608073,11.272182 0 0 1 108.20941,54.249917 28.608073,11.272182 0 0 1 79.601342,43.012878 v 6.128308 a 28.608073,11.272182 0 0 0 28.608068,11.272182 28.608073,11.272182 0 0 0 28.60808,-11.272182 28.608073,11.272182 0 0 0 0,-0.03514 z"
       inkscape:export-xdpi="25.039568"
       inkscape:export-ydpi="25.039568" />
    <path
       id="path3845"
       style="opacity:1;fill:#784421;fill-opacity:1;stroke:none;stroke-width:3.26929;stroke-linecap:round;stroke-linejoin:round"
       d="m 245.06445,408.20312 a 167.50901,66.538824 0 0 0 -3.59179,13.70313 167.50901,66.538824 0 0 0 167.50781,66.53906 167.50901,66.538824 0 0 0 167.50976,-66.53906 167.50901,66.538824 0 0 0 -3.59179,-13.69922 167.50901,66.538825 0 0 1 -163.91797,52.83008 167.50901,66.538825 0 0 1 -163.91602,-52.83399 z"
       transform="scale(0.26458333)"
       inkscape:export-xdpi="25.039568"
       inkscape:export-ydpi="25.039568" />
    <path
       id="path3853"
       style="opacity:1;fill:#000000;fill-opacity:0;stroke:#784421;stroke-width:18.8977;stroke-linecap:round;stroke-linejoin:round;stroke-miterlimit:4;stroke-dasharray:none;stroke-opacity:1"
       d="m 545.63086,393.01562 c 0,0 151.2064,-351.044772 -142.15639,-346.696119 C 145.68441,50.140842 271.6543,393.01562 271.6543,393.01562"
       transform="scale(0.26458333)"
       sodipodi:nodetypes="csc"
       inkscape:export-xdpi="25.039568"
       inkscape:export-ydpi="25.039568" />
  </g>
</svg>
