<?xml version="1.0" encoding="UTF-8" standalone="no"?>
<svg
   xmlns:dc="http://purl.org/dc/elements/1.1/"
   xmlns:cc="http://creativecommons.org/ns#"
   xmlns:rdf="http://www.w3.org/1999/02/22-rdf-syntax-ns#"
   xmlns:svg="http://www.w3.org/2000/svg"
   xmlns="http://www.w3.org/2000/svg"
   xmlns:sodipodi="http://sodipodi.sourceforge.net/DTD/sodipodi-0.dtd"
   xmlns:inkscape="http://www.inkscape.org/namespaces/inkscape"
   width="210mm"
   height="297mm"
   viewBox="0 0 210 297"
   version="1.1"
   id="svg8"
   inkscape:version="1.0.1 (3bc2e813f5, 2020-09-07)"
   sodipodi:docname="Wheel.svg"
   inkscape:export-filename="/home/bence/Documents/SailGame/Art/Wheel.png"
   inkscape:export-xdpi="42.441574"
   inkscape:export-ydpi="42.441574">
  <defs
     id="defs2" />
  <sodipodi:namedview
     id="base"
     pagecolor="#ffffff"
     bordercolor="#666666"
     borderopacity="1.0"
     inkscape:pageopacity="0.0"
     inkscape:pageshadow="2"
     inkscape:zoom="0.98994949"
     inkscape:cx="150.32019"
     inkscape:cy="464.70575"
     inkscape:document-units="mm"
     inkscape:current-layer="layer1"
     inkscape:document-rotation="0"
     showgrid="false"
     inkscape:snap-midpoints="true"
     inkscape:snap-bbox="true"
     inkscape:bbox-paths="false"
     inkscape:bbox-nodes="false"
     inkscape:snap-bbox-edge-midpoints="false"
     inkscape:snap-bbox-midpoints="true"
     inkscape:snap-object-midpoints="true"
     inkscape:window-width="1920"
     inkscape:window-height="1016"
     inkscape:window-x="1920"
     inkscape:window-y="27"
     inkscape:window-maximized="1"
     inkscape:snap-center="true" />
  <metadata
     id="metadata5">
    <rdf:RDF>
      <cc:Work
         rdf:about="">
        <dc:format>image/svg+xml</dc:format>
        <dc:type
           rdf:resource="http://purl.org/dc/dcmitype/StillImage" />
        <dc:title />
      </cc:Work>
    </rdf:RDF>
  </metadata>
  <g
     inkscape:label="Layer 1"
     inkscape:groupmode="layer"
     id="layer1">
    <path
       id="path2167"
       style="fill:#000000;stroke:none;stroke-width:0.2;stroke-linecap:round;stroke-linejoin:round"
       d="m 130.92383,51.640625 c -2.89024,0.124122 -5.04987,2.508073 -6.2519,4.942382 -1.06864,2.04177 -1.72158,4.535505 -3.82844,5.794861 -1.23487,0.95851 -2.8959,1.276592 -4.01427,2.373929 -1.09297,1.404581 -1.84107,3.02961 -2.74914,4.550937 -12.0351,-4.694735 -25.819507,-4.633706 -37.859377,0.01758 -1.046506,-1.73872 -1.857684,-3.688472 -3.341797,-5.111328 -2.177768,-1.035716 -4.647627,-2.101804 -5.731442,-4.421628 -1.233799,-2.452587 -2.172428,-5.264072 -4.501076,-6.929748 -1.750587,-1.360188 -4.387979,-1.69434 -6.22171,-0.304405 -2.04712,1.497168 -2.505808,4.425686 -1.612129,6.6966 0.815674,2.579558 2.870358,4.492022 4.00581,6.900588 0.756588,1.900768 0.478109,3.987694 0.330079,5.966797 0.415894,2.041275 1.856244,3.632191 2.742187,5.466796 -10.078016,8.062463 -16.956354,20.014905 -18.921875,32.769536 -1.96962,0.0333 -3.985816,-0.19757 -5.916016,0.27343 -1.890558,1.15772 -3.707949,2.75796 -6.045176,2.81576 -2.366908,0.11161 -4.710466,-0.61439 -7.07903,-0.13611 -2.348677,0.34561 -4.78314,1.85092 -5.278137,4.32231 -0.514185,2.2211 0.805954,4.56325 2.837735,5.50322 2.681726,1.41709 5.805677,0.8706 8.679117,0.64056 2.060823,-0.14772 3.966713,0.81445 5.579867,2.00354 0.824834,0.58882 1.725985,1.14557 2.780812,1.08247 1.488866,0.1104 2.98181,-0.0211 4.472078,0.028 1.980558,12.74936 8.828958,24.70603 18.898438,32.78906 -0.970741,1.74889 -2.215444,3.40588 -2.726563,5.36328 0.116757,2.36129 0.52525,4.83854 -0.790152,6.9304 -1.294333,2.15926 -3.133635,4.0593 -3.736532,6.57427 -0.634653,2.22531 -0.0848,4.9666 1.972742,6.26879 1.939099,1.33671 4.641412,0.8334 6.334357,-0.67515 2.246649,-1.81682 3.120193,-4.67084 4.427947,-7.13156 1.073293,-1.88187 3.094469,-2.83809 4.973915,-3.71999 1.42696,-0.66736 2.022104,-2.23302 2.804561,-3.49569 0.345366,-0.62212 0.681908,-1.24959 1.050271,-1.85849 11.211699,4.36959 23.943096,4.6222 35.365236,0.87305 0.83756,-0.28053 1.67141,-0.57283 2.49414,-0.89453 1.02674,1.69969 1.85641,3.69007 3.33594,5.10937 2.13487,1.01504 4.52398,2.04782 5.66406,4.26758 1.10599,2.07914 1.81455,4.42439 3.50948,6.13761 1.52847,1.68993 4.04121,2.75038 6.25537,1.82005 2.07499,-0.7745 3.25591,-3.06248 3.04765,-5.21352 -0.16403,-2.98151 -2.15711,-5.36242 -3.778,-7.70932 -1.17504,-1.74887 -1.27834,-3.92815 -1.05007,-5.95754 0.12674,-0.98784 0.0511,-1.99997 -0.47887,-2.86802 -0.63173,-1.33574 -1.49453,-2.54286 -2.20673,-3.83426 4.1021,-3.20861 7.61094,-7.14898 10.54153,-11.44471 4.30875,-6.38761 7.24714,-13.71421 8.4155,-21.33654 1.96973,-0.0327 3.98588,0.19728 5.91601,-0.27539 1.85112,-1.13179 3.6175,-2.66695 5.88483,-2.80891 2.30241,-0.14525 4.5938,0.57056 6.89537,0.17638 2.41008,-0.26409 4.9704,-1.689 5.57918,-4.19364 0.56852,-2.14199 -0.55491,-4.5025 -2.5085,-5.51099 -2.56856,-1.53205 -5.68125,-1.12028 -8.50974,-0.82893 -2.06666,0.22598 -4.09586,-0.54357 -5.72665,-1.77674 -0.89544,-0.62816 -1.8316,-1.328 -2.98382,-1.28057 -1.52976,-0.14162 -3.06527,0.0287 -4.59746,-0.0246 -0.18142,-1.76363 -0.64681,-3.49792 -1.06961,-5.22123 -2.84583,-10.753764 -9.12338,-20.610539 -17.81321,-27.579549 0.9597,-1.709326 2.21428,-3.409736 2.72852,-5.359375 -0.1245,-2.346619 -0.52165,-4.94235 0.84961,-7.039063 1.4072,-2.257019 3.35031,-4.317353 3.8045,-7.03481 0.47518,-2.237413 -0.36635,-4.872177 -2.50592,-5.939034 -0.71102,-0.391456 -1.53219,-0.585796 -2.3435,-0.543734 z M 95.228516,81.033203 c 3.756607,0.03041 7.513564,0.59226 11.070314,1.720703 -2.41276,4.179037 -4.82552,8.358073 -7.238283,12.53711 -2.585326,-0.448946 -5.248408,-0.445083 -7.833985,0 -2.414062,-4.183594 -4.828124,-8.367188 -7.242187,-12.550782 3.580937,-1.134139 7.47375,-1.695221 11.244141,-1.707031 z M 76.900391,103.56055 c -1.674942,2.01858 -3.007011,4.32271 -3.916016,6.7832 -4.826172,0 -9.652344,0 -14.478516,0 1.643335,-7.29925 5.615287,-14.189872 11.150391,-19.324219 2.414714,4.180339 4.829427,8.360677 7.244141,12.541019 z M 121.01367,91.373047 c 5.34841,5.083682 9.17552,11.762883 10.7793,18.970703 -4.82943,0 -9.65886,0 -14.48828,0 -0.90878,-2.45978 -2.23716,-4.76626 -3.91602,-6.78125 2.41341,-4.179688 4.82682,-8.359375 7.24024,-12.539062 0.12825,0.116536 0.25651,0.233072 0.38476,0.349609 z M 72.986328,126.89062 c 0.909415,2.45938 2.236044,4.76706 3.916016,6.78126 -2.414063,4.17968 -4.828125,8.35937 -7.242188,12.53906 -5.566647,-5.09595 -9.528799,-11.97485 -11.169922,-19.30274 4.831965,-0.0319 9.664062,-0.0152 14.496094,-0.0176 z m 58.794922,0 c -1.66146,7.36978 -5.62863,14.18214 -11.14453,19.33399 -2.41537,-4.18425 -4.83073,-8.36849 -7.2461,-12.55273 1.67404,-2.01834 3.00589,-4.32204 3.91602,-6.78126 4.82487,0 9.64974,1e-5 14.47461,0 z m -25.47461,27.60352 c -5.74484,1.80215 -12.145078,2.2017 -18.153345,1.02984 -1.405016,-0.26773 -2.796244,-0.61294 -4.159154,-1.04742 2.411458,-4.17643 4.822916,-8.35286 7.234375,-12.52929 2.585846,0.43499 5.247007,0.4441 7.832031,-0.002 2.415363,4.18295 4.830733,8.36589 7.246093,12.54883 z" />
    <path
       id="rect833"
       style="fill:#784421;stroke:none;stroke-width:0.2;stroke-linecap:round;stroke-linejoin:round"
       d="m 132.15011,54.521904 c -2.55273,-0.989775 -4.50325,1.363517 -6.30885,5.815408 -1.8056,4.451889 -7.02647,6.030014 -7.02647,6.030014 L 95.14543,107.36385 71.47613,66.36736 c 0,0 -5.221398,-1.578462 -7.026999,-6.030356 -1.805613,-4.451893 -3.756062,-6.804767 -6.308785,-5.814993 -2.133532,1.715837 -1.07091,4.581381 1.881737,8.371036 2.95265,3.789639 1.708758,9.100587 1.708758,9.100587 l 23.669302,40.996496 -47.338658,3e-5 c 0,0 -3.977476,3.73272 -8.735719,3.07047 -4.758266,-0.66224 -7.771205,-0.14972 -8.190397,2.55588 0.419195,2.70561 3.432312,3.21787 8.190583,2.55563 4.758244,-0.66224 8.735681,3.07083 8.735681,3.07083 l 47.338656,-4e-5 -23.669356,40.99653 c 0,0 1.243741,5.31047 -1.70891,9.10011 -2.952645,3.78966 -4.0154,6.6555 -1.881867,8.37133 2.552722,0.98978 4.503679,-1.36326 6.30929,-5.81515 1.805601,-4.45189 7.026476,-6.03002 7.026476,-6.03002 l 23.669356,-40.99653 23.669302,40.9965 c 0,0 5.22166,1.57802 7.02726,6.02991 1.80561,4.45188 3.7558,6.80521 6.30852,5.81544 2.13353,-1.71584 1.07092,-4.58139 -1.88173,-8.37104 -2.95265,-3.78963 -1.70876,-9.10058 -1.70876,-9.10058 l -23.6693,-40.9965 47.33865,-3e-5 c 0,0 3.97747,-3.73271 8.73572,-3.07046 4.75826,0.66224 7.7712,0.14972 8.1904,-2.55589 -0.4192,-2.70561 -3.43208,-3.21832 -8.19033,-2.55607 -4.75824,0.66225 -8.73593,-3.07038 -8.73593,-3.07038 l -47.33866,3e-5 23.66936,-40.996532 c 0,0 -1.24375,-5.310471 1.7089,-9.100112 2.95265,-3.789644 4.01496,-6.655745 1.88143,-8.371582 z" />
    <circle
       style="opacity:1;fill:none;stroke:#c87137;stroke-width:10;stroke-linecap:round;stroke-linejoin:round;stroke-miterlimit:4;stroke-dasharray:none"
       id="path857"
       cx="141.70656"
       cy="55.152252"
       r="45.199524"
       transform="rotate(30)" />
    <circle
       style="opacity:1;fill:#c87137;stroke:none;stroke-width:10;stroke-linecap:round;stroke-linejoin:round;stroke-miterlimit:4;stroke-dasharray:none"
       id="path878"
       cx="141.70656"
       cy="55.152252"
       r="21.02354"
       transform="rotate(30)" />
    <circle
       style="opacity:1;fill:#784421;stroke:none;stroke-width:10;stroke-linecap:round;stroke-linejoin:round;stroke-miterlimit:4;stroke-dasharray:none"
       id="circle880"
       cx="141.70656"
       cy="55.152252"
       r="11.280918"
       transform="rotate(30)" />
    <circle
       style="opacity:1;fill:#784421;stroke:none;stroke-width:10;stroke-linecap:round;stroke-linejoin:round;stroke-miterlimit:4;stroke-dasharray:none"
       id="circle882"
       cx="141.70656"
       cy="9.9805059"
       r="2.6997967"
       inkscape:transform-center-y="-39.11988"
       transform="rotate(30)"
       inkscape:transform-center-x="-22.585871" />
    <circle
       style="opacity:1;fill:#784421;stroke:none;stroke-width:10;stroke-linecap:round;stroke-linejoin:round;stroke-miterlimit:4;stroke-dasharray:none"
       id="circle884"
       cx="118.61653"
       cy="-140.31709"
       r="2.6997967"
       transform="rotate(90)"
       inkscape:transform-center-x="-45.171737" />
    <circle
       style="opacity:1;fill:#784421;stroke:none;stroke-width:10;stroke-linecap:round;stroke-linejoin:round;stroke-miterlimit:4;stroke-dasharray:none"
       id="circle886"
       cx="-23.090029"
       cy="-195.46936"
       r="2.6997967"
       inkscape:transform-center-y="39.119887"
       transform="rotate(150)"
       inkscape:transform-center-x="-22.585877" />
    <circle
       style="opacity:1;fill:#784421;stroke:none;stroke-width:10;stroke-linecap:round;stroke-linejoin:round;stroke-miterlimit:4;stroke-dasharray:none"
       id="circle888"
       cx="-141.70656"
       cy="-100.32401"
       r="2.6997967"
       inkscape:transform-center-y="39.119892"
       transform="rotate(-150)"
       inkscape:transform-center-x="22.585882" />
    <circle
       style="opacity:1;fill:#784421;stroke:none;stroke-width:10;stroke-linecap:round;stroke-linejoin:round;stroke-miterlimit:4;stroke-dasharray:none"
       id="circle890"
       cx="-118.61653"
       cy="49.973602"
       r="2.6997967"
       transform="rotate(-90)"
       inkscape:transform-center-x="45.171753" />
    <circle
       style="opacity:1;fill:#784421;stroke:none;stroke-width:10;stroke-linecap:round;stroke-linejoin:round;stroke-miterlimit:4;stroke-dasharray:none"
       id="circle892"
       cx="23.090029"
       cy="105.12585"
       r="2.6997967"
       inkscape:transform-center-y="-39.119892"
       transform="rotate(-30)"
       inkscape:transform-center-x="22.585881" />
  </g>
</svg>
